# AST/ASF file generated using VICON BodyLanguage
# -----------------------------------------------
:version 1.10
:name VICON
:units
  mass 1.0
  length 0.45
  angle deg
:documentation
   .ast/.asf automatically generated from VICON data using
   VICON BodyBuilder and BodyLanguage model FoxedUp or BRILLIANT.MOD
:root
   order TX TY TZ RX RY RZ
   axis XYZ
   position 0 0 0  
   orientation 0 0 0 
:bonedata
  begin
     id 1 
     name lhipjoint
     direction 0.612567 -0.751349 0.245431 
     length 2.42285 
     axis 0 0 0  XYZ
  end
  begin
     id 2 
     name lfemur
     direction 0.34202 -0.939693 0  
     length 7.11304  
     axis 0 0 20  XYZ
    dof rx ry rz
    limits (-160.0 20.0)
           (-70.0 70.0)
           (-60.0 70.0)
  end
  begin
     id 3 
     name ltibia
     direction 0.34202 -0.939693 0   
     length 7.84529   
     axis 0 0 20   XYZ
    dof rx
    limits (-10.0 170.0)
  end
  begin
     id 4 
     name lfoot
     direction 0.0779239 -0.214094 0.9737   
     length 1.97176   
     axis -90 7.62852e-016 20   XYZ
    dof rx rz
    limits (-45.0 90.0)
           (-70.0 20.0)
  end
  begin
     id 5 
     name ltoes
     direction 1.53565e-011 -4.21709e-011 1   
     length 0.993197   
     axis -90 7.62852e-016 20   XYZ
    dof rx
    limits (-90.0 20.0)
  end
  begin
     id 6 
     name rhipjoint
     direction -0.665722 -0.709315 0.231701   
     length 2.56642  
     axis 0 0 0  XYZ 
  end
  begin
     id 7 
     name rfemur
     direction -0.34202 -0.939693 0   
     length 7.32108   
     axis 0 0 -20   XYZ
    dof rx ry rz
    limits (-160.0 20.0)
           (-70.0 70.0)
           (-70.0 60.0)
  end
  begin
     id 8 
     name rtibia
     direction -0.34202 -0.939693 0   
     length 7.81254   
     axis 0 0 -20   XYZ
    dof rx
    limits (-10.0 170.0)
 end
 begin
     id 9 
     name rfoot
     direction -0.0832806 -0.228812 0.969902   
     length 2.08278  
     axis -90 -7.62852e-016 -20   XYZ
    dof rx rz
    limits (-45.0 90.0)
           (-20.0 70.0)
  end
  begin
     id 10 
     name rtoes
     direction -1.53589e-011 -4.22086e-011 1   
     length 1.04609   
     axis -90 -7.62852e-016 -20   XYZ
    dof rx
    limits (-90.0 20.0)
  end
  begin
     id 11 
     name lowerback
     direction -0.00506013 0.988403 -0.151766   
     length 2.01978   
     axis 0 0 0   XYZ
    dof rx ry rz
    limits (-20.0 45.0)
           (-30.0 30.0)
           (-30.0 30.0)
  end
  begin
     id 12 
     name upperback
     direction -0.00836389 0.99968 0.0238859   
     length 2.01276   
     axis 0 0 0   XYZ
    dof rx ry rz
    limits (-20.0 45.0)
           (-30.0 30.0)
           (-30.0 30.0)
  end
  begin
     id 13 
     name thorax
     direction -0.00684136 0.995386 0.0957043   
     length 2.07303   
     axis 0 0 0   XYZ
    dof rx ry rz
    limits (-20.0 45.0)
           (-30.0 30.0)
           (-30.0 30.0)
  end
  begin
     id 14 
     name lowerneck
     direction -0.0161045 0.999661 0.0204485   
     length 1.91243   
     axis 0 0 0   XYZ
    dof rx ry rz
    limits (-20.0 45.0)
           (-30.0 30.0)
           (-30.0 30.0)
  end
  begin
     id 15 
     name upperneck
     direction 0.0553583 0.990946 -0.122319   
     length 1.91574   
     axis 0 0 0   XYZ
    dof rx ry rz
    limits (-20.0 45.0)
           (-30.0 30.0)
           (-30.0 30.0)
  end
  begin
     id 16
     name head
     direction 0.0180273 0.998839 -0.0446756  
     length 1.92693  
     axis 0 0 0   XYZ
    dof rx ry rz
    limits (-20.0 45.0)
           (-30.0 30.0)
           (-30.0 30.0)
  end
  begin
     id 17 
     name lclavicle
     direction 0.945646 0.319323 -0.0615358  
     length 4.0076  
     axis 0 0 0   XYZ
    dof ry rz
    limits (-20.0 10.0)
           (0.0 20.0)
  end
  begin
     id 18 
     name lhumerus
     direction 1 -4.48967e-011 -2.79996e-027   
     length 5.64147   
     axis 180 -30 -90   XYZ
    dof rx ry rz
    limits (-60.0 90.0)
           (-90.0 90.0)
           (-90.0 90.0)
  end
  begin
     id 19
     name lradius
     direction 1 -4.48976e-011 -9.5122e-027   
     length 2.86444   
     axis 180 -30 -90   XYZ
    dof rx
    limits (-10.0 170.0)
  end
  begin
     id 20
     name lwrist
     direction 1 -4.48983e-011 -1.24047e-026   
     length 1.43222   
     axis 9.05591e-015 90 90   XYZ
    dof ry
    limits (-180.0 0.0)
 end
  begin
     id 21 
     name lhand
     direction 1 -4.4892e-011 -2.48094e-026   
     length 0.722123   
     axis 1.58305e-014 90 90   XYZ
    dof rx rz
    limits (-90.0 90.0)
           (-45.0 45.0)
  end
  begin
     id 22 
     name lfingers
     direction 1 -4.48895e-011 -4.96187e-026   
     length 0.582194   
     axis 3.1661e-014 90 90   XYZ
    dof rx
    limits (0.0 90.0)
  end
  begin
     id 23
     name lthumb
     direction 0.707107 -6.34961e-011 0.707107   
     length 0.835918   
     axis -90 45 2.85299e-015   XYZ
    dof rx rz
    limits (-45.0 45.0)
           (-45.0 45.0)
  end
  begin
     id 24 
     name rclavicle
     direction -0.932635 0.324218 -0.15835   
     length 3.65819  
     axis 0 0 0   XYZ 
    dof ry rz
    limits (-10.0 20.0)
           (-20.0 0.0)
  end
  begin
     id 25 
     name rhumerus
     direction -1 -4.48965e-011 -4.02296e-027  
     length 5.44729   
     axis 180 30 90   XYZ
    dof rx ry rz
    limits (-90.0 60.0)
           (-90.0 90.0)
           (-90.0 90.0)
  end
  begin
     id 26 
     name rradius
     direction -1 -4.48957e-011 -8.81087e-027   
     length 3.08821   
     axis 180 30 90   XYZ
    dof rx
    limits (-10.0 170.0)
  end
  begin
     id 27 
     name rwrist
     direction -1 -4.49015e-011 -1.24047e-026   
     length 1.5441   
     axis 9.05591e-015 -90 -90   XYZ
    dof ry
    limits (-180.0 0.0)
  end
  begin
     id 28
     name rhand
     direction -1 -4.4891e-011 -2.48094e-026   
     length 0.821049   
     axis 1.58305e-014 -90 -90   XYZ
    dof rx rz
    limits (-90.0 90.0)
           (-45.0 45.0)
  end
  begin
     id 29
     name rfingers
     direction -1 -4.48985e-011 -4.96187e-026   
     length 0.661951   
     axis 3.1661e-014 -90 -90   XYZ
    dof rx
    limits (0.0 90.0)
  end
  begin
     id 30
     name rthumb
     direction -0.707107 -6.34906e-011 0.707107   
     length 0.950433   
     axis -90 -45 -2.85299e-015   XYZ
    dof rx rz
    limits (-45.0 45.0)
           (-45.0 45.0)
  end
:hierarchy
  begin
    root lhipjoint rhipjoint lowerback
    lhipjoint lfemur
    lfemur ltibia
    ltibia lfoot
    lfoot ltoes
    rhipjoint rfemur
    rfemur rtibia
    rtibia rfoot
    rfoot rtoes
    lowerback upperback
    upperback thorax
    thorax lowerneck lclavicle rclavicle
    lowerneck upperneck
    upperneck head
    lclavicle lhumerus
    lhumerus lradius
    lradius lwrist
    lwrist lhand lthumb
    lhand lfingers
    rclavicle rhumerus
    rhumerus rradius
    rradius rwrist
    rwrist rhand rthumb
    rhand rfingers
  end

#!OML:ASF F:\VICON\USERDATA\INSTALL\rory3\rory3.ASF
:FULLY-SPECIFIED
:DEGREES
1574
root 3.06251 18.0701 -0.00597183 -26.5263 84.3149 -31.6223
lowerback 5.09745 -0.505688 2.77865
upperback -7.56167 -0.177726 0.676414
thorax -10.9626 -0.21669 -0.816442
lowerneck -10.7877 -2.02763 -3.14134
upperneck 28.7587 -2.54003 3.58449
head 11.1594 -0.787392 1.58415
rclavicle 2.93207e-015 -2.28602e-015
rhumerus -24.1962 25.2162 -98.8265
rradius 128.977
rwrist 5.76623
rhand 33.0307 -1.91474
rfingers 7.12502
rthumb 56.4091 -18.9826
lclavicle 2.93207e-015 -2.28602e-015
lhumerus -29.0507 -32.7371 106.315
lradius 129.549
lwrist 25.9641
lhand -17.8704 24.9007
lfingers 7.12502
lthumb 8.3954 54.7139
rfemur -6.59064 -1.44237 21.8586
rtibia 13.2125
rfoot -8.60693 1.4797
rtoes -12.7516
lfemur -0.584468 2.46518 -16.1704
ltibia 7.2871
lfoot -14.3205 6.6827
ltoes -15.3767
1575
root 3.06018 18.0652 -0.00581096 -26.392 84.307 -31.4476
lowerback 5.2079 -0.49422 2.71994
upperback -7.5898 -0.161749 0.693041
thorax -11.0603 -0.204373 -0.767326
lowerneck -10.636 -2.01458 -3.20921
upperneck 28.7142 -2.51654 3.62438
head 11.1124 -0.779683 1.61366
rclavicle 1.33434e-014 8.64713e-015
rhumerus -24.2076 25.226 -98.811
rradius 128.923
rwrist 5.74894
rhand 33.099 -1.93101
rfingers 7.12502
rthumb 56.4694 -18.9507
lclavicle 1.33434e-014 8.64713e-015
lhumerus -29.1827 -32.6561 106.483
lradius 129.574
lwrist 26.0211
lhand -17.7731 24.8186
lfingers 7.12502
lthumb 8.4893 54.6279
rfemur -6.47895 -1.44021 21.8614
rtibia 13.0917
rfoot -8.60424 1.49019
rtoes -12.7724
lfemur -0.677485 2.47148 -16.1848
ltibia 7.53133
lfoot -14.4428 6.65007
ltoes -15.3727
1576
root 3.06071 18.0612 -0.00638221 -25.735 84.3264 -30.7594
lowerback 5.32871 -0.480977 2.5668
upperback -7.65287 -0.149801 0.723088
thorax -11.203 -0.185448 -0.650121
lowerneck -10.4285 -2.01457 -3.28252
upperneck 28.6823 -2.4923 3.60203
head 11.0583 -0.779235 1.6219
rclavicle 6.21202e-018 1.10822e-014
rhumerus -24.326 25.2101 -98.8138
rradius 128.899
rwrist 5.72589
rhand 33.1911 -1.80662
rfingers 7.12502
rthumb 56.5508 -18.7608
lclavicle 6.21202e-018 1.10822e-014
lhumerus -29.3959 -32.6176 106.777
lradius 129.603
lwrist 26.0168
lhand -17.8194 24.8555
lfingers 7.12502
lthumb 8.44461 54.6666
rfemur -6.36059 -1.46475 21.7875
rtibia 12.9353
rfoot -8.59117 1.49882
rtoes -12.263
lfemur -0.796034 2.47613 -16.2706
ltibia 7.82829
lfoot -14.5668 6.6491
ltoes -15.6677
1577
root 3.06281 18.0613 -0.00691475 -25.6489 84.293 -30.669
lowerback 5.44851 -0.436294 2.52391
upperback -7.73974 -0.0827091 0.744053
thorax -11.3724 -0.149255 -0.612699
lowerneck -10.043 -2.03474 -3.38086
upperneck 28.4665 -2.51049 3.62887
head 10.9016 -0.798929 1.64489
rclavicle -5.92006e-015 -1.44119e-015
rhumerus -24.5948 25.1034 -98.8826
rradius 128.872
rwrist 5.77985
rhand 33.185 -1.67253
rfingers 7.12502
rthumb 56.5454 -18.6311
lclavicle -5.92006e-015 -1.44119e-015
lhumerus -29.6939 -32.6369 107.118
lradius 129.62
lwrist 26.0189
lhand -17.7825 24.8795
lfingers 7.12502
lthumb 8.48021 54.6892
rfemur -6.28348 -1.40157 21.7958
rtibia 12.8116
rfoot -8.63779 1.41292
rtoes -12.1285
lfemur -0.911951 2.50391 -16.2678
ltibia 8.07188
lfoot -14.6923 6.60772
ltoes -15.588
1578
root 3.06322 18.0607 -0.00642299 -26.498 84.2246 -31.5087
lowerback 5.66408 -0.401622 2.56459
upperback -7.86489 -0.010909 0.796895
thorax -11.6457 -0.116825 -0.588133
lowerneck -9.47096 -2.04592 -3.52913
upperneck 28.0339 -2.53463 3.73578
head 10.6294 -0.822253 1.70206
rclavicle -1.00945e-014 6.11263e-015
rhumerus -24.9085 24.9239 -99.0071
rradius 128.811
rwrist 5.81816
rhand 33.35 -1.62871
rfingers 7.12502
rthumb 56.6909 -18.4693
lclavicle -1.00945e-014 6.11263e-015
lhumerus -30.0299 -32.5802 107.52
lradius 129.54
lwrist 25.9339
lhand -17.6288 24.8022
lfingers 7.12502
lthumb 8.62857 54.6059
rfemur -6.21744 -1.41194 21.9229
rtibia 12.7304
rfoot -8.69323 1.40677
rtoes -12.2384
lfemur -0.986945 2.52183 -16.142
ltibia 8.23668
lfoot -14.7554 6.61088
ltoes -15.7165
1579
root 3.06443 18.0569 -0.00728311 -26.4823 84.2225 -31.444
lowerback 5.59443 -0.372103 2.5275
upperback -7.79818 0.0198171 0.809451
thorax -11.5253 -0.0975489 -0.559126
lowerneck -8.76733 -2.03204 -3.72069
upperneck 27.1491 -2.56108 3.96131
head 10.17 -0.849457 1.80132
rclavicle 4.72114e-015 -4.96962e-017
rhumerus -24.8985 24.8914 -99.0048
rradius 128.726
rwrist 5.83516
rhand 33.5226 -1.7975
rfingers 7.12502
rthumb 56.843 -18.5135
lclavicle 4.72114e-015 -4.96962e-017
lhumerus -29.951 -32.6092 107.615
lradius 129.462
lwrist 25.9677
lhand -17.5135 24.9008
lfingers 7.12502
lthumb 8.73984 54.6999
rfemur -6.1289 -1.48048 21.9276
rtibia 12.6808
rfoot -8.76903 1.42516
rtoes -12.0942
lfemur -0.997827 2.51685 -16.1397
ltibia 8.37008
lfoot -14.8285 6.56105
ltoes -15.2603
1580
root 3.06657 18.052 -0.00856368 -25.6787 84.2738 -30.6081
lowerback 5.62006 -0.347832 2.4314
upperback -7.79117 0.0395849 0.787703
thorax -11.5314 -0.0813254 -0.531785
lowerneck -7.80524 -1.99837 -3.94947
upperneck 25.9106 -2.58428 4.27875
head 9.54452 -0.877768 1.93416
rclavicle 1.85491e-014 -2.43511e-015
rhumerus -24.9839 24.9116 -99.0459
rradius 128.552
rwrist 5.90939
rhand 33.5727 -1.9062
rfingers 7.12502
rthumb 56.8871 -18.5859
lclavicle 1.85491e-014 -2.43511e-015
lhumerus -30.0312 -32.7362 107.782
lradius 129.374
lwrist 26.0212
lhand -17.5591 24.9535
lfingers 7.12502
lthumb 8.69578 54.7544
rfemur -6.07362 -1.44396 21.8261
rtibia 12.6729
rfoot -8.94842 1.40841
rtoes -12.0562
lfemur -1.02251 2.49872 -16.2485
ltibia 8.49361
lfoot -14.9149 6.53611
ltoes -15.1236
1581
root 3.06693 18.0484 -0.00933841 -24.784 84.3419 -29.6916
lowerback 5.63896 -0.346141 2.29529
upperback -7.75861 0.0225228 0.768983
thorax -11.505 -0.0793263 -0.473149
lowerneck -6.54827 -1.91259 -4.15705
upperneck 24.1318 -2.56042 4.65582
head 8.69 -0.890727 2.07981
rclavicle 1.10698e-014 -4.27387e-015
rhumerus -24.98 24.9136 -98.9543
rradius 128.338
rwrist 5.98945
rhand 33.6348 -1.80291
rfingers 7.12502
rthumb 56.9417 -18.4373
lclavicle 1.10698e-014 -4.27387e-015
lhumerus -29.9782 -32.8676 107.804
lradius 129.211
lwrist 25.9588
lhand -17.6944 24.8982
lfingers 7.12502
lthumb 8.56527 54.7044
rfemur -6.05694 -1.42972 21.7151
rtibia 12.6879
rfoot -9.17332 1.36519
rtoes -12.0738
lfemur -1.05082 2.46781 -16.3665
ltibia 8.58127
lfoot -14.9581 6.52675
ltoes -15.5771
1582
root 3.06802 18.0442 -0.00921791 -23.8101 84.407 -28.711
lowerback 5.47104 -0.365771 2.17917
upperback -7.61423 -0.0368873 0.710666
thorax -11.2382 -0.100673 -0.46291
lowerneck -5.00258 -1.7687 -4.22668
upperneck 21.7206 -2.4792 5.05302
head 7.59399 -0.881391 2.20422
rclavicle -5.93869e-015 7.7526e-015
rhumerus -24.7375 24.98 -98.7507
rradius 128.148
rwrist 6.05899
rhand 33.7523 -1.67221
rfingers 7.12502
rthumb 57.0451 -18.2206
lclavicle -5.93869e-015 7.7526e-015
lhumerus -29.5671 -33.0038 107.497
lradius 129.081
lwrist 25.9165
lhand -17.6559 24.9738
lfingers 7.12502
lthumb 8.60241 54.7785
rfemur -6.04302 -1.42812 21.5978
rtibia 12.6992
rfoot -9.33481 1.33717
rtoes -12.2383
lfemur -1.09169 2.44104 -16.4841
ltibia 8.64826
lfoot -14.9952 6.54081
ltoes -15.8442
1583
root 3.07203 18.0406 -0.0101493 -23.5369 84.4321 -28.4507
lowerback 5.09224 -0.436065 2.16533
upperback -7.34429 -0.163822 0.66491
thorax -10.7054 -0.161411 -0.488324
lowerneck -3.23635 -1.54802 -4.08599
upperneck 18.7213 -2.28345 5.37759
head 6.29974 -0.827259 2.27149
rclavicle 1.41634e-015 -1.33186e-014
rhumerus -24.3011 25.1798 -98.541
rradius 127.987
rwrist 6.23911
rhand 33.7678 -1.72834
rfingers 7.12502
rthumb 57.0587 -18.2653
lclavicle 1.41634e-015 -1.33186e-014
lhumerus -28.8477 -32.9865 106.886
lradius 128.935
lwrist 25.8838
lhand -17.5552 25.0941
lfingers 7.12502
lthumb 8.69964 54.8948
rfemur -6.02036 -1.35653 21.5585
rtibia 12.6717
rfoot -9.47795 1.33251
rtoes -11.6853
lfemur -1.16149 2.42261 -16.5138
ltibia 8.76276
lfoot -15.0765 6.5024
ltoes -15.6716
1584
root 3.07648 18.0363 -0.0132839 -22.9436 84.5106 -27.7772
lowerback 4.80273 -0.507385 2.13805
upperback -7.02347 -0.29566 0.594252
thorax -10.1739 -0.225628 -0.533333
lowerneck -1.27438 -1.35631 -4.05925
upperneck 15.2763 -2.10004 5.81474
head 4.87994 -0.796935 2.39186
rclavicle -9.30561e-015 7.55382e-015
rhumerus -23.9005 25.3004 -98.3161
rradius 127.848
rwrist 6.48116
rhand 33.6037 -1.76831
rfingers 7.12502
rthumb 56.9144 -18.4254
lclavicle -9.30561e-015 7.55382e-015
lhumerus -28.0551 -32.9045 106.21
lradius 128.745
lwrist 25.9725
lhand -17.3547 25.0727
lfingers 7.12502
lthumb 8.89306 54.8653
rfemur -5.85086 -1.39118 21.441
rtibia 12.5785
rfoot -9.56887 1.42599
rtoes -10.6885
lfemur -1.16611 2.36481 -16.6127
ltibia 8.95029
lfoot -15.1944 6.46441
ltoes -15.6044
1585
root 3.07819 18.0338 -0.015028 -22.9598 84.5701 -27.7348
lowerback 4.18885 -0.560521 2.20984
upperback -6.49084 -0.411943 0.506467
thorax -9.22057 -0.287618 -0.658995
lowerneck 0.891785 -1.22424 -4.04895
upperneck 10.9282 -1.91943 6.11669
head 3.52518 -0.81529 2.71139
rclavicle -3.03147e-015 -2.38542e-015
rhumerus -23.1358 25.2885 -97.9052
rradius 127.747
rwrist 6.525
rhand 33.5423 -1.69566
rfingers 7.12502
rthumb 56.8604 -18.3974
lclavicle -3.03147e-015 -2.38542e-015
lhumerus -26.8321 -32.9269 105.207
lradius 128.603
lwrist 26.232
lhand -17.2013 25.0019
lfingers 7.12502
lthumb 9.04108 54.7882
rfemur -5.67814 -1.4111 21.4166
rtibia 12.4104
rfoot -9.65065 1.35616
rtoes -10.7201
lfemur -1.24692 2.31463 -16.6302
ltibia 9.21635
lfoot -15.3364 6.4046
ltoes -15.6826
1586
root 3.07798 18.03 -0.0148075 -23.1156 84.5944 -27.8145
lowerback 4.21779 -0.574245 2.22274
upperback -6.30255 -0.442501 0.464699
thorax -9.03208 -0.305449 -0.707449
lowerneck 3.32955 -1.21656 -4.04261
upperneck 7.00651 -1.89488 6.49946
head 1.76259 -0.887867 2.7904
rclavicle 7.45443e-016 -2.98177e-015
rhumerus -23.121 25.033 -97.6459
rradius 127.8
rwrist 6.40374
rhand 33.6269 -1.7643
rfingers 7.12502
rthumb 56.9348 -18.4045
lclavicle 7.45443e-016 -2.98177e-015
lhumerus -26.3731 -32.769 104.7
lradius 128.647
lwrist 26.5167
lhand -17.089 25.1756
lfingers 7.12502
lthumb 9.1495 54.9571
rfemur -5.51864 -1.18999 21.4138
rtibia 12.2682
rfoot -9.8051 1.16032
rtoes -10.0507
lfemur -1.30504 2.27814 -16.6108
ltibia 9.45193
lfoot -15.4005 6.39146
ltoes -15.9266
1587
root 3.07685 18.0265 -0.016313 -23.8752 84.5811 -28.4941
lowerback 4.19944 -0.593582 2.27256
upperback -6.0571 -0.476548 0.476205
thorax -8.75388 -0.324508 -0.720589
lowerneck 5.60271 -1.2215 -4.03889
upperneck 3.11474 -1.83875 6.76622
head 0.122197 -0.951167 2.88822
rclavicle -2.84014e-014 1.48095e-014
rhumerus -23.1424 24.7507 -97.2893
rradius 127.953
rwrist 6.04302
rhand 33.7977 -1.89736
rfingers 7.12502
rthumb 57.085 -18.4123
lclavicle -2.84014e-014 1.48095e-014
lhumerus -25.8509 -32.5273 104.163
lradius 128.745
lwrist 26.673
lhand -17.0922 25.1827
lfingers 7.12502
lthumb 9.1464 54.9644
rfemur -5.37216 -0.882869 21.4787
rtibia 12.1893
rfoot -9.99713 0.937938
rtoes -9.25428
lfemur -1.32516 2.25345 -16.5167
ltibia 9.62698
lfoot -15.4439 6.39644
ltoes -16.1581
